{"title":"World War Z (2013) CAM NEW SOURCE x264 AAC-SSDD","uid":8634064,"size":472563829,"categoryP":"video","categoryS":"movies","magnet":"?xt=urn:btih:b35e70f24f8b48b9f8e55de8cf3d913fa141bfa4&amp;dn=World+War+Z+%282013%29+CAM+NEW+SOURCE+x264+AAC-SSDD&amp;tr=udp%3A%2F%2Ftracker.openbittorrent.com%3A80&amp;tr=udp%3A%2F%2Fopen.demonii.com%3A1337&amp;tr=udp%3A%2F%2Ftracker.coppersurfer.tk%3A6969&amp;tr=udp%3A%2F%2Fexodus.desync.com%3A6969","seeders":2,"leechers":0,"uploader":"tykoon123","files":-1,"time":1372703863,"description":" &lt;a href=&quot;http://www.imageurlhost.com/images/tey9mw0vq65supfor15v.jpeg&quot; rel=&quot;nofollow&quot; target=&quot;_NEW&quot;&gt;http://www.imageurlhost.com/images/tey9mw0vq65supfor15v.jpeg&lt;/a&gt;\n\nInfo:\nFormat : MPEG-4\nFormat profile : Base Media\nCodec ID : isom\nFile size : 450 MiB\nDuration : 1h 48mn\nOverall bit rate mode : Variable\nOverall bit rate : 580 Kbps\n\nVideo\nID : 1\nFormat : AVC\nFormat/Info : Advanced Video Codec\nFormat profile : &lt;a class=&quot;__cf_email__&quot; href=&quot;/cdn-cgi/l/email-protection&quot; data-cfemail=&quot;521a3b353a121e667c63&quot;&gt;[email&amp;#160;protected]&lt;/a&gt;&lt;script cf-hash='f9e31' type=&quot;text/javascript&quot;&gt;\n/* &lt;![CDATA[ */!function(){try{var t=&quot;currentScript&quot;in document?document.currentScript:function(){for(var t=document.getElementsByTagName(&quot;script&quot;),e=t.length;e--;)if(t[e].getAttribute(&quot;cf-hash&quot;))return t[e]}();if(t&amp;&amp;t.previousSibling){var e,r,n,i,c=t.previousSibling,a=c.getAttribute(&quot;data-cfemail&quot;);if(a){for(e=&quot;&quot;,r=parseInt(a.substr(0,2),16),n=2;a.length-n;n+=2)i=parseInt(a.substr(n,2),16)^r,e+=String.fromCharCode(i);e=document.createTextNode(e),c.parentNode.replaceChild(e,c)}}}catch(u){}}();/* ]]&gt; */&lt;/script&gt;\nFormat settings, CABAC : Yes\nFormat settings, ReFrames : 4 frames\nCodec ID : avc1\nCodec ID/Info : Advanced Video Coding\nDuration : 1h 48mn\nBit rate : 528 Kbps\nMaximum bit rate : 1 509 Kbps\nWidth : 640 pixels\nHeight : 272 pixels\nDisplay aspect ratio : 2.35:1\nFrame rate mode : Constant\nFrame rate : 24.000 fps\nColor space : YUV\nChroma subsampling : 4:2:0\nBit depth : 8 bits\nScan type : Progressive\nBits/(Pixel*Frame) : 0.126\nStream size : 410 MiB (91%)\nWriting library : x264 core 133 r2334 a3ac64b\n\nAudio\nID : 2\nFormat : AAC\nFormat/Info : Advanced Audio Codec\nFormat profile : LC\nCodec ID : 40\nDuration : 1h 48mn\nBit rate mode : Variable\nBit rate : 48.0 Kbps\nMaximum bit rate : 53.1 Kbps\nChannel(s) : 2 channels\nChannel positions : Front: L R\nSampling rate : 48.0 KHz\nCompression mode : Lossy\nStream size : 37.3 MiB (8%)\n\n\n\n\nScreens: &lt;a href=&quot;\nhttp://image.torrent-invites.com/images/614XNSb8NRN.png&quot; rel=&quot;nofollow&quot; target=&quot;_NEW&quot;&gt;\nhttp://image.torrent-invites.com/images/614XNSb8NRN.png&lt;/a&gt; &lt;a href=&quot;\nhttp://image.torrent-invites.com/images/652vT4q32jC.png&quot; rel=&quot;nofollow&quot; target=&quot;_NEW&quot;&gt;\nhttp://image.torrent-invites.com/images/652vT4q32jC.png&lt;/a&gt; &lt;a href=&quot;\nhttp://image.torrent-invites.com/images/823UOtiPl9N.png&quot; rel=&quot;nofollow&quot; target=&quot;_NEW&quot;&gt;\nhttp://image.torrent-invites.com/images/823UOtiPl9N.png&lt;/a&gt; &lt;a href=&quot;\nhttp://image.torrent-invites.com/images/5735h2ZSM4b.png&quot; rel=&quot;nofollow&quot; target=&quot;_NEW&quot;&gt;\nhttp://image.torrent-invites.com/images/5735h2ZSM4b.png&lt;/a&gt; &lt;a href=&quot;\nhttp://image.torrent-invites.com/images/993ww.png&quot; rel=&quot;nofollow&quot; target=&quot;_NEW&quot;&gt;\nhttp://image.torrent-invites.com/images/993ww.png&lt;/a&gt;","torrent":{"xt":"urn:btih:b35e70f24f8b48b9f8e55de8cf3d913fa141bfa4","amp;dn":"World+War+Z+%282013%29+CAM+NEW+SOURCE+x264+AAC-SSDD","amp;tr":["udp%3A%2F%2Ftracker.openbittorrent.com%3A80","udp%3A%2F%2Fopen.demonii.com%3A1337","udp%3A%2F%2Ftracker.coppersurfer.tk%3A6969","udp%3A%2F%2Fexodus.desync.com%3A6969"],"infoHash":"b35e70f24f8b48b9f8e55de8cf3d913fa141bfa4","infoHashBuffer":{"type":"Buffer","data":[179,94,112,242,79,139,72,185,248,229,93,232,207,61,145,63,161,65,191,164]},"announce":[],"urlList":[]}}